<svg xmlns="http://www.w3.org/2000/svg" xmlns:xlink="http://www.w3.org/1999/xlink" fill="none" version="1.1" width="24" height="24" viewBox="0 0 24 24"><defs><clipPath id="master_svg0_7_36"><rect x="0" y="0" width="24" height="24" rx="0"/></clipPath></defs><g clip-path="url(#master_svg0_7_36)"><g><path d="M13.025,0.385C13.07,0.423,13.134,0.475,13.219,0.54C13.347,0.638,13.499,0.747,13.673,0.866C14.152,1.191,14.735,1.539,15.43,1.901C17.37,2.912,19.828,3.854,22.851,4.643L23.821,4.892L23.946,5.898C23.9591,6.01333,23.9685,6.12906,23.974,6.245C24.034,7.242,23.998,8.476,23.798,9.863C23.507,11.881,22.91,13.869,21.935,15.737C20.067,19.314,16.992,22.106,12.529,23.787L12,24L11.471,23.787C7.008,22.106,3.933,19.314,2.065,15.737C1.09,13.869,0.493,11.881,0.202,9.863C0.0225822,8.66591,-0.0363792,7.45385,0.026,6.245C0.0326836,6.13252,0.0413516,6.02017,0.052,5.908L0.178,4.892L0.848,4.72L1.144,4.644C4.172,3.854,6.632,2.912,8.572,1.901C9.267,1.539,9.851,1.191,10.328,0.866C10.4821,0.762043,10.6332,0.653665,10.781,0.541C10.867,0.475,10.932,0.421,10.971,0.389C11.5577,-0.127352,12.4363,-0.129063,13.025,0.385ZM16.019,7.977C13.8021,5.75087,10.1979,5.75087,7.981,7.977C6.90359,9.03626,6.30021,10.4861,6.308,11.997C6.308,13.517,6.894,14.949,7.981,16.018C9.04173,17.0927,10.49,17.696,12,17.692C13.511,17.6994,14.9608,17.0957,16.02,16.018C17.097,14.9586,17.7001,13.5087,17.692,11.998C17.692,10.479,17.106,9.048,16.019,7.978L16.019,7.977ZM15.511,9.478C16.029,10.204,16.323,11.086,16.323,12.002C16.323,13.16,15.873,14.249,15.061,15.062C14.25,15.8737,13.1484,16.3277,12.001,16.323C11.096,16.3214,10.214,16.0376,9.478,15.511L15.511,9.478ZM11.998,7.677C12.914,7.677,13.796,7.971,14.522,8.489L8.489,14.522C7.96222,13.7857,7.67835,12.9033,7.677,11.998C7.677,10.84,8.127,9.751,8.939,8.938L9.117,8.77C9.90944,8.06244,10.9357,7.67311,11.998,7.677Z" fill="#000000" fill-opacity="1"/></g></g></svg>